{
  "accessors": [
    {
      "bufferView": 2,
      "componentType": 5126,
      "count": 410,
      "max": [
        0.20170024037361145,
        0.085640005767345428,
        0.41215464472770691
      ],
      "min": [
        -0.20247209072113037,
        -0.122425377368927,
        -0.0087974192574620247
      ],
      "type": "VEC3"
    },
    {
      "bufferView": 2,
      "byteOffset": 4920,
      "componentType": 5126,
      "count": 410,
      "max": [
        0.99379932880401611,
        0.99994033575057983,
        0.99999111890792847
      ],
      "min": [
        -0.99313074350357056,
        -0.99993520975112915,
        -0.9843934178352356
      ],
      "type": "VEC3"
    },
    {
      "bufferView": 3,
      "componentType": 5126,
      "count": 410,
      "max": [
        0.99992591142654419,
        0.96542197465896606,
        0.99987220764160156,
        1
      ],
      "min": [
        -0.99992597103118896,
        -0.99998438358306885,
        -0.99993938207626343,
        -1
      ],
      "type": "VEC4"
    },
    {
      "bufferView": 1,
      "componentType": 5126,
      "count": 410,
      "max": [
        1.0029300451278687,
        1.0068700313568115
      ],
      "min": [
        -0.0006399999838322401,
        0.0076700001955032349
      ],
      "type": "VEC2"
    },
    {
      "bufferView": 0,
      "componentType": 5125,
      "count": 1434,
      "max": [
        409
      ],
      "min": [
        0
      ],
      "type": "SCALAR"
    },
    {
      "bufferView": 2,
      "byteOffset": 9840,
      "componentType": 5126,
      "count": 179,
      "max": [
        0.12272000312805176,
        0.10256999731063843,
        0.23921999335289001
      ],
      "min": [
        -0.12272000312805176,
        -0.16380999982357025,
        -0.027300000190734863
      ],
      "type": "VEC3"
    },
    {
      "bufferView": 2,
      "byteOffset": 11988,
      "componentType": 5126,
      "count": 179,
      "max": [
        0.99670028686523438,
        0.99016517400741577,
        0.99367964267730713
      ],
      "min": [
        -0.99670028686523438,
        -0.98346984386444092,
        -0.99982273578643799
      ],
      "type": "VEC3"
    },
    {
      "bufferView": 3,
      "byteOffset": 6560,
      "componentType": 5126,
      "count": 179,
      "max": [
        0.88564634323120117,
        0.99982267618179321,
        0.99016517400741577,
        1
      ],
      "min": [
        -0.88564634323120117,
        -0.13990360498428345,
        -0.98346990346908569,
        -1
      ],
      "type": "VEC4"
    },
    {
      "bufferView": 1,
      "byteOffset": 3280,
      "componentType": 5126,
      "count": 179,
      "max": [
        0.98044002056121826,
        0.73453998565673828
      ],
      "min": [
        0.4482400119304657,
        0.016389999538660049
      ],
      "type": "VEC2"
    },
    {
      "bufferView": 0,
      "byteOffset": 5736,
      "componentType": 5125,
      "count": 966,
      "max": [
        178
      ],
      "min": [
        0
      ],
      "type": "SCALAR"
    },
    {
      "bufferView": 4,
      "componentType": 5126,
      "count": 1,
      "max": [
        1,
        0,
        0,
        0,
        0,
        1,
        0,
        0,
        0,
        0,
        1,
        0,
        0,
        0,
        0,
        1
      ],
      "min": [
        1,
        0,
        0,
        0,
        0,
        1,
        0,
        0,
        0,
        0,
        1,
        0,
        0,
        0,
        0,
        1
      ],
      "type": "MAT4"
    }
  ],
  "asset": {
    "generator": "Sketchfab (OSG glTF plugin)",
    "version": "2.0"
  },
  "bufferViews": [
    {
      "buffer": 0,
      "byteLength": 9600,
      "byteOffset": 0,
      "name": "floatBufferViews",
      "target": 34963
    },
    {
      "buffer": 0,
      "byteLength": 4712,
      "byteOffset": 9600,
      "byteStride": 8,
      "name": "floatBufferViews",
      "target": 34962
    },
    {
      "buffer": 0,
      "byteLength": 14136,
      "byteOffset": 14312,
      "byteStride": 12,
      "name": "floatBufferViews",
      "target": 34962
    },
    {
      "buffer": 0,
      "byteLength": 9424,
      "byteOffset": 28448,
      "byteStride": 16,
      "name": "floatBufferViews",
      "target": 34962
    },
    {
      "buffer": 0,
      "byteLength": 64,
      "byteOffset": 37872,
      "byteStride": 64,
      "name": "floatBufferViews"
    }
  ],
  "buffers": [
    {
      "byteLength": 37936,
      "uri": "scene.bin"
    }
  ],
  "images": [
    {
      "uri": "textures/peep_happyco_mat.004_baseColor.png"
    },
    {
      "uri": "textures/Material_baseColor.png"
    }
  ],
  "materials": [
    {
      "doubleSided": true,
      "emissiveFactor": [
        0,
        0,
        0
      ],
      "name": "Material",
      "pbrMetallicRoughness": {
        "baseColorFactor": [
          1,
          1,
          1,
          1
        ],
        "baseColorTexture": {
          "index": 1,
          "texCoord": 0
        },
        "metallicFactor": 0,
        "roughnessFactor": 1
      }
    },
    {
      "doubleSided": true,
      "emissiveFactor": [
        0,
        0,
        0
      ],
      "name": "peep_happyco_mat.004",
      "pbrMetallicRoughness": {
        "baseColorFactor": [
          1,
          1,
          1,
          1
        ],
        "baseColorTexture": {
          "index": 0,
          "texCoord": 0
        },
        "metallicFactor": 0,
        "roughnessFactor": 1
      }
    }
  ],
  "meshes": [
    {
      "name": "polySurface10.001_0",
      "primitives": [
        {
          "attributes": {
            "NORMAL": 1,
            "POSITION": 0,
            "TANGENT": 2,
            "TEXCOORD_0": 3
          },
          "indices": 4,
          "material": 1,
          "mode": 4
        }
      ]
    },
    {
      "name": "reference_guest.000_0",
      "primitives": [
        {
          "attributes": {
            "NORMAL": 6,
            "POSITION": 5,
            "TANGENT": 7,
            "TEXCOORD_0": 8
          },
          "indices": 9,
          "material": 0,
          "mode": 4
        }
      ]
    }
  ],
  "nodes": [
    {
      "children": [
        1
      ],
      "name": "RootNode (gltf orientation matrix)",
      "rotation": [
        -0.70710678118654746,
        -0,
        -0,
        0.70710678118654757
      ]
    },
    {
      "children": [
        2
      ],
      "name": "RootNode (model correction matrix)"
    },
    {
      "children": [
        3,
        8
      ],
      "name": "Root"
    },
    {
      "children": [
        4,
        5
      ],
      "matrix": [
        1,
        0,
        0,
        0,
        0,
        -0,
        1,
        0,
        0,
        -1,
        -0,
        0,
        0,
        0,
        0,
        1
      ],
      "name": "Armature"
    },
    {
      "name": "Armature_rootJoint"
    },
    {
      "children": [
        7
      ],
      "matrix": [
        1,
        0,
        -0,
        0,
        0,
        0,
        -1,
        0,
        0,
        1,
        0,
        0,
        -0,
        0,
        -0,
        1
      ],
      "name": "polySurface10.001"
    },
    {
      "mesh": 0,
      "name": "polySurface10.001_0"
    },
    {
      "children": [
        6
      ],
      "name": "Geode"
    },
    {
      "children": [
        10
      ],
      "matrix": [
        1,
        0,
        0,
        0,
        0,
        1.0004,
        0,
        0,
        0,
        0,
        1,
        0,
        0,
        -0.015340000000000003,
        0.3884200000000001,
        1
      ],
      "name": "reference_guest.000"
    },
    {
      "mesh": 1,
      "name": "reference_guest.000_0"
    },
    {
      "children": [
        9
      ],
      "name": "Geode"
    }
  ],
  "samplers": [
    {
      "magFilter": 9729,
      "minFilter": 9987,
      "wrapS": 10497,
      "wrapT": 10497
    }
  ],
  "scene": 0,
  "scenes": [
    {
      "name": "OSG_Scene",
      "nodes": [
        0
      ]
    }
  ],
  "skins": [
    {
      "inverseBindMatrices": 10,
      "joints": [
        4
      ],
      "skeleton": 4
    }
  ],
  "textures": [
    {
      "sampler": 0,
      "source": 0
    },
    {
      "sampler": 0,
      "source": 1
    }
  ]
}

